<?xml version="1.0" encoding="UTF-8"?><svg id="a" xmlns="http://www.w3.org/2000/svg" xmlns:xlink="http://www.w3.org/1999/xlink" viewBox="0 0 1200 1200"><defs><style>.u,.v,.w,.x,.y,.a`,.aa{fill:none;}.ab{fill:#e9e8e8;}.ac{fill:#fff;}.ad,.ae,.af{fill:#9dd5c0;}.ag{fill:#1d252e;}.v,.ae,.w,.af,.x{stroke-linecap:round;}.v,.ae,.w,.af,.x,.a`{stroke:#1d252e;}.v,.ae,.x,.a`{stroke-width:4px;}.w{stroke-width:3.99px;}.af,.x{stroke-linejoin:round;}.af,.y{stroke-width:2px;}.y,.a`,.aa{stroke-miterlimit:10;}.y,.aa{stroke:#9dd5c0;}.ah{clip-path:url(#t);}.ai{clip-path:url(#c);}.aj{clip-path:url(#d);}</style><clipPath id="c"><rect class="u" x="245.18" y="499.93" width="121.81" height="50.01" transform="translate(612.17 1049.88) rotate(180)"/></clipPath><clipPath id="d"><rect class="u" x="699.19" y="346.58" width="121.81" height="50.01" transform="translate(1520.19 743.18) rotate(180)"/></clipPath><clipPath id="t"><path class="u" d="M272.79,688.74c-.3,4.59,43.87,50.26,101.36,99.57,57.49,49.3,126.28,77.6,200.2,91.95,48.8,2.15,87.94-3.35,124.16-17.94,115.03-46.35,178.44-160.81,171.53-162.55s-2.44,1.15-22.17,21.93c-34.76,36.59-76.09,63.85-100.32,76.77-41.46,22.11-107.8,63.57-207.31,30.41-72.76-24.25-214.09-93.07-236.71-114.42-10.91-7.51-30.44-30.3-30.74-25.71Z"/></clipPath></defs><path id="b" class="ab" d="M661.56,891.1c-141.57,1.18-482.81,28-532.4-152.37C79.58,558.36,470.21,109.7,781.32,392.53c116.88,106.25,306.11,247.71,293.18,327-21.49,131.77-324.55,170.84-412.93,171.57Z"/><g><g><path class="ad" d="M451.51,418.7c0,3.01,.46,5.94,1.32,8.75h96.14c.86-2.81,1.32-5.74,1.32-8.75,0-2.34-.28-4.63-.81-6.86-4.2-17.71-24.35-31.12-48.58-31.12-21.35,0-39.54,10.42-46.43,25.01-1.92,4.05-2.96,8.42-2.96,12.97Z"/><path class="ad" d="M407.94,427.45h97.72c-.69-2.46-2.08-4.81-4.04-6.98-7.84-8.72-24.96-14.77-44.82-14.77-.78,0-1.56,0-2.33,.03-23.77,.57-43.14,9.81-46.53,21.72Z"/><path class="ad" d="M496.74,427.45h73.59c-2.8-6.94-10.58-12.66-20.85-15.61-4.85-1.39-10.25-2.17-15.95-2.17-13.39,0-25.17,4.3-31.91,10.8-2.2,2.12-3.87,4.47-4.88,6.98Z"/></g><line class="aa" x1="609.65" y1="427.45" x2="407.94" y2="427.45"/></g><g><g><path class="ad" d="M762.19,551.55c0,3.01,.46,5.94,1.32,8.75h96.14c.86-2.81,1.32-5.74,1.32-8.75,0-2.34-.28-4.63-.81-6.86-4.2-17.71-24.35-31.12-48.58-31.12-21.35,0-39.54,10.42-46.43,25.01-1.92,4.05-2.96,8.42-2.96,12.97Z"/><path class="ad" d="M718.62,560.3h97.72c-.69-2.46-2.08-4.81-4.04-6.98-7.84-8.72-24.96-14.77-44.82-14.77-.78,0-1.56,0-2.33,.03-23.77,.57-43.14,9.81-46.53,21.72Z"/><path class="ad" d="M807.42,560.3h73.59c-2.8-6.94-10.58-12.66-20.85-15.61-4.85-1.39-10.25-2.17-15.95-2.17-13.39,0-25.17,4.3-31.91,10.8-2.2,2.12-3.87,4.47-4.88,6.98Z"/></g><line class="aa" x1="920.32" y1="560.3" x2="718.62" y2="560.3"/></g><g><g class="ai"><ellipse class="ad" cx="306.39" cy="539.29" rx="34.78" ry="26.75"/><ellipse class="ad" cx="269.56" cy="549.95" rx="24.38" ry="20.11"/><ellipse class="ad" cx="332.37" cy="545.48" rx="26.71" ry="16.55"/></g><line class="aa" x1="379.48" y1="549.95" x2="223.07" y2="549.95"/></g><g><g class="aj"><ellipse class="ad" cx="760.4" cy="385.94" rx="34.78" ry="26.75"/><ellipse class="ad" cx="723.57" cy="396.6" rx="24.38" ry="20.11"/><ellipse class="ad" cx="786.38" cy="392.13" rx="26.71" ry="16.55"/></g><line class="aa" x1="833.49" y1="396.6" x2="677.08" y2="396.6"/></g><path id="e" class="ac" d="M690.27,779.56l-27.91-17.35-17.56-63.7,7.53-9.24-1.63-10.04-3.48-8.83c-8.47-5.18-14.15-.25-17.14,14.49l1.35,11.78,5.96,76.76,31.55,26.82,21.33-20.7Z"/><path id="f" class="ac" d="M686.42,775.55l-24.06-13.34-17.56-63.7s6.61-5.83,7.37-9.69-1.01-12.14-4.95-18.41c-8.47-5.18-14.15-.25-17.14,14.49l1.35,11.78,5.96,76.76,40.75,33.32"/><path id="g" class="v" d="M678.51,771.04l-16.15-8.82-17.56-63.7s6.61-5.83,7.37-9.69-1.01-12.14-4.95-18.41c-8.47-5.18-14.15-.25-17.14,14.49l1.35,11.78,5.96,76.76,5.34,4.28"/><path class="ac" d="M624.75,868.79c20.65,2.5,41.59-4.83,58.76-16.58,17.17-11.75,28.98-31.2,41.86-47.54-15.47-6.49-21.85-29.8-38.95-30.15s-62.64,28-94.48,42.86c-14.99,16.97,9.4,39.47,32.81,51.41Z"/><g><path id="h" class="ac" d="M736.31,738.83c4.99-5.33,9.89-7.87,14.72-7.63,7.23,.37,19.02,4.83,24.88,18.12,5.86,13.29,.71,29.57-9.84,39.53-8.49,8.85-16.15,11.12-27.35,13.44-4.32-.35-7.21-1.73-8.68-4.12-2.2-3.59-4.81-11.99-3.68-16.01,.76-2.68,4.07-17.12,9.95-43.33Z"/><path id="i" class="ac" d="M727.66,798.45c.23,1.14,.95,2.31,2.15,3.5,1.2,1.19,3.31,2.03,6.33,2.53"/><path id="j" class="ac" d="M725.62,800.26c.09,1.15,1.03,2.67,2.8,4.56,1.77,1.89,4.23,2.8,7.38,2.71,1.1,1.79,.45,4.63-1.94,8.53-3.59,5.85-11.16,8.23-13.29,12.51-1.42,2.86-2.14,6.48-2.16,10.86-7.67-9.68-9.67-18.14-5.99-25.37,3.68-7.23,8.08-11.84,13.2-13.81Z"/></g><polygon id="k" class="ac" points="736.43 741.1 725.92 744.7 717.35 753.37 714.41 763.64 715.43 771.36 705.83 779.25 699.17 784.18 688.57 774.38 682.07 782.34 692.84 815.27 715.77 816.19 717.08 810.26 709.7 801.42 727.3 785.81 737.64 785.43 745.58 782.72 749.4 786.46 756.9 782.42 757.78 776.8 754.49 770.43 757.6 762.08 763.17 758.71 743.79 750.06 736.43 741.1"/><path id="l" class="ac" d="M715.26,769.65c.15,1.36,.79,3.02,1.91,4.97s2.86,3.9,5.23,5.87"/><g><path id="m" class="ag" d="M736.31,738.83c4.99-5.33,9.89-7.87,14.72-7.63,7.23,.37,19.02,4.83,24.88,18.12,5.86,13.29,.71,29.57-9.84,39.53-8.49,8.85-5.92,8.74-15.61,14.82-4.17,1.17-7.36,.9-9.57-.83-3.32-2.6-8.7-9.56-9.04-13.72-.23-2.78-1.41-24.09,4.46-50.29Z"/><path id="n" class="v" d="M738.76,803.93c.62,.99,1.69,1.83,3.23,2.53,1.54,.7,3.81,.75,6.81,.16"/><path id="o" class="ag" d="M737.47,806.35c.49,1.04,1.89,2.14,4.21,3.3,2.32,1.16,4.94,1.15,7.86-.03,1.65,1.29,2.04,4.18,1.16,8.67-1.32,6.73-7.58,11.61-8.08,16.37-.33,3.17,.26,6.82,1.77,10.93-10.57-6.39-15.4-13.62-14.47-21.68,.92-8.06,3.44-13.91,7.55-17.55Z"/></g><polygon id="p" class="ac" points="736.43 741.1 725.92 744.7 717.35 753.37 714.41 763.64 715.43 771.36 705.83 779.25 699.17 784.18 688.57 774.38 682.07 782.34 692.84 815.27 715.77 816.19 717.08 810.26 709.7 801.42 727.3 785.81 737.64 785.43 745.58 782.72 749.4 786.46 756.9 782.42 757.78 776.8 754.49 770.43 757.6 762.08 763.17 758.71 748.68 754.82 736.43 741.1"/><path id="q" class="v" d="M736.43,741.1c-7.32,1.28-13.26,4.76-17.82,10.44-4.56,5.68-5.46,12.46-2.69,20.34l-16.7,10.93-4.17-2.7"/><path id="r" class="w" d="M737.25,740.92c.15,2.12,5.11,9.7,9.33,12.9,4.22,3.2,7.86,1.5,16.47,4.75-2.91,1.06-5.16,2.91-6.75,5.55-1.59,2.64-2.19,5.33-1.8,8.07,3.66,2.67,4.54,5.57,2.65,8.68-2.83,4.67-7.21,6.02-8.86,5.15-1.1-.58-2.05-1.74-2.85-3.47-2,1.72-5.11,2.71-9.33,2.97-4.22,.25-6.83,.02-7.82-.71l-9.99,8.21"/><path id="s" class="v" d="M715.26,769.65c.15,1.36,.79,3.02,1.91,4.97s2.86,3.9,5.23,5.87"/><path class="ac" d="M785.01,761.84c-4.2-1.31-8.83,.93-10.55,5.11l-2.86,4.64c-.9,2.19-.83,4.48-.01,6.43l-41.58,24.77-10.81,.43c-9.08-2.74-16.23-1.08-18.27,7.8h0c-2.07,9,4.44,17.81,14,18.95l19.22-4.04,45.88-41.49c.08-.4,.16-.78,.25-1.15,3.73-.02,7.25-2.54,8.36-6.36l1.59-5.03c1.26-4.33-1.04-8.74-5.23-10.05Z"/><path class="v" d="M786.57,762.51c-.48-.27-1.01-.5-1.56-.68-4.2-1.31-8.83,.93-10.55,5.11l-2.86,4.64c-.9,2.19-.83,4.48-.01,6.43l-41.58,24.77-3.79,.25"/><path class="ac" d="M523.74,806.24l41.16,34.69,36.3-22.77-68.06-54.9s-116.49,11.11-137.64,16.43c2.46,6.78,9.24,15.93,11.7,22.71,28.75-4.58,116.54,3.85,116.54,3.85Z"/><path class="x" d="M454.96,771.39c-10.18,1.15-20.14,2.34-29.02,3.48"/><path class="x" d="M533.14,763.26s-40.58,3.87-78.19,8.14"/><line class="x" x1="586.7" y1="806.46" x2="533.14" y2="763.26"/><path class="ad" d="M572.63,808.5c4.19-.46,17.29,3.01,27.6,3.47,19.85-7.22,40.03-26.44,50.24-32.08s18.04-.33,24.2-2.18c1.2-.36,9.81-3.02,14.44-3.11,1.13-.02,3.45,.94,3.94,1.29,2.51,1.79-14.57,1.99-14.23,3.35,1.59,6.35,12.52,15.77,20.21,14.47,11.7-1.74,16.75,2.6,17.34,3.47,.76,1.12-11.22-1.52-13.64,2.3-4.31,6.78-6.7,49.8-31.96,60.89s-57.94,19.47-72.92,17.82,2.11-22.46,2.67-35.07-32.09-34.15-27.9-34.62Z"/><path class="ac" d="M502.12,800.99l56.16,65.01c22.37,10.49,51.57,13.13,54.77-8.64s-101.51-105.72-101.51-105.72c0,0-92.73,41.27-111.16,52.93,4.46,5.67,21.64,11.66,26.1,17.33,25.88-13.34,75.64-20.92,75.64-20.92Z"/><path class="x" d="M601.26,834.91c-26.8-32.82-89.71-83.26-89.71-83.26,0,0-92.73,41.27-111.16,52.93,4.46,5.67,21.64,11.66,26.1,17.33,25.88-13.34,75.64-20.92,75.64-20.92l11.34,13.12"/><g><path class="ae" d="M290.62,912.46c-24.92-42.13-39.87-87.68-6.85-64.59,33.02,23.08,31.77,59.84,31.77,59.84l-24.92,4.75Z"/><path class="ae" d="M334.57,901.98c45.81-17.27,85.97-43.43,45.77-46.09-40.2-2.66-62.23,26.79-62.23,26.79l16.46,19.3Z"/><g><path class="af" d="M202.01,481.85c-.46,.67-.68,1.54-1.46,1.64-.33-1.1-1.7-17.16-3.96-14.72-2.26,2.44,1.01,15.91,.15,20.44-.16,.85-.39,1.07-.61,1.42-6.44,9.81-12.67,19.53-18.92,29.38-.71-3.8-1.44-7.6-2.19-11.39-.28,5.16-.42,10.32-.41,15.5-.32,.51-.63,1.01-.96,1.52-.93,1.46-1.85,2.91-2.78,4.38-.93,1.47-1.84,2.91-2.79,4.39-1.89,2.96-3.75,5.86-5.69,8.83s-3.9,5.93-5.94,8.92-4.28,6.1-6.5,9.01c-.13,0-.24-.03-.36-.04-1.2-3.49-2.31-7.06-3.02-10.66-.71-3.61-1.2-7.17-1.51-10.81-.31-3.64-.32-7.25-.29-10.89,.01-1.31,.12-2.62,.17-3.93,2.49-4.98,5.1-9.88,7.85-14.72-2.37,2.11-4.7,4.25-7.01,6.43,1.83-10.5,4.59-20.55,8.31-30.53,8.61-8.04,17.52-15.65,26.82-22.87-5.78,1.05-11.52,2.25-17.24,3.61,.49-.78,.9-1.54,1.41-2.32,2.24-3.43,4.31-6.74,6.89-10.01,5.15-6.53,11.09-12.65,17.25-18.21,1.54-1.39,3.54-2.88,4.86-3.93,.8-.64,.27-.21,.28-.22,6.21-2.7,12.59-5.25,18.99-7.59-3.42,.45-6.82,.97-10.22,1.53,2.87-1.7,5.6-3.35,8.61-4.86,4.24-2.13,8.59-4.02,13.1-5.69,2.26-.84,4.72-1.57,7.08-2.25,1.17-.34,2.54-.65,3.7-.92,.71-.17,1.29-.28,1.96-.41s1.3-.27,1.97-.32c.15-.01,.29,.09,.27,.24-.08,.56-.28,1.05-.46,1.6-.18,.55-.36,1.02-.59,1.6-.37,.96-.81,2.08-1.22,3.05-.81,1.96-1.77,4.03-2.61,5.91-1.12,2.48-1.98,4.82-3.07,7.27-1.8-2.8-3.66-5.54-5.39-8.38,.57,5.1,1.24,10.12,2.18,15.16-.83,1.75-1.68,3.49-2.56,5.21-.94-3.8-1.87-7.7-2.79-11.43,.31,4,.83,10.07,1.15,13.5,.18,2.04,.09,.68,.06,.75-1.44,2.77-3.12,5.75-4.79,8.47-3.82,6.24-7.74,12.44-11.73,18.5-2,3.03-3.97,5.95-6,8.87Z"/><path class="af" d="M317.2,380.85c.73-.37,1.61-.47,1.81-1.23-1.04-.47-16.75-3.96-14.04-5.88,2.71-1.92,15.6,3.11,20.21,2.86,.87-.05,1.11-.24,1.48-.42,10.56-5.09,21-9.99,31.58-14.9-3.67-1.2-7.33-2.44-10.98-3.68,5.15,.41,10.27,.95,15.39,1.65,.54-.25,1.08-.5,1.63-.75,1.57-.73,3.12-1.45,4.7-2.18s3.12-1.44,4.71-2.19c3.18-1.49,6.29-2.95,9.49-4.49,3.2-1.54,6.38-3.09,9.62-4.72,3.23-1.63,6.6-3.45,9.78-5.27,.01-.13,0-.24,0-.37-3.29-1.66-6.68-3.22-10.15-4.41-3.47-1.19-6.94-2.14-10.49-2.93s-7.13-1.28-10.74-1.73c-1.3-.16-2.61-.23-3.91-.35-5.26,1.81-10.45,3.75-15.61,5.84,2.4-2.07,4.83-4.11,7.29-6.11-10.63,.42-20.94,1.84-31.31,4.21-9.1,7.48-17.8,15.32-26.18,23.6,1.8-5.6,3.75-11.14,5.86-16.64-.84,.38-1.64,.69-2.48,1.09-3.69,1.77-7.24,3.39-10.81,5.52-7.15,4.25-13.99,9.33-20.3,14.72-1.58,1.35-3.32,3.14-4.54,4.31-.73,.7-.24,.24-.25,.25-3.52,5.83-6.93,11.85-10.12,17.92,.92-3.35,1.91-6.67,2.94-10-2.08,2.65-4.07,5.1-5.99,7.92-2.7,3.98-5.19,8.15-7.54,12.45-1.18,2.16-2.32,4.62-3.37,6.91-.52,1.14-1.05,2.49-1.51,3.64-.28,.7-.49,1.27-.72,1.94-.24,.66-.48,1.3-.64,1.96-.03,.15,.03,.31,.18,.32,.54,.02,1.05-.11,1.59-.2,.55-.08,1.01-.16,1.6-.28,.97-.2,2.05-.41,3.05-.64,2-.48,4.02-.98,6-1.54,2.62-.74,5.2-1.56,7.79-2.39-2.26-2.4-4.65-4.67-7.08-6.9,4.85,1.39,9.69,2.81,14.51,4.29,1.92-.7,3.83-1.42,5.73-2.16-3.61-1.37-7.33-2.73-10.89-4.05,3.92,.69,9.9,1.92,13.22,2.63,2.01,.43,.67,.16,.74,.15,2.94-1.14,6.18-2.49,9.12-3.77,6.75-2.96,13.42-6.04,20.01-9.21,3.29-1.59,6.45-3.16,9.64-4.8Z"/><path class="af" d="M319.65,450.93c.86,.31,1.59,.9,2.33,.57,.19-.85-9.12-17.51-5.85-15.92s9.46,14.63,12.92,18.59c.66,.75,1.02,.7,1.45,.87,11.98,4.72,23.74,9.42,35.58,14.28-1.78-3.85-3.53-7.71-5.27-11.58,3.53,4.44,6.93,8.97,10.2,13.6,.61,.25,1.21,.5,1.82,.75,1.76,.72,3.5,1.43,5.27,2.15,1.76,.72,3.5,1.44,5.28,2.16,3.57,1.45,7.07,2.86,10.7,4.29s7.25,2.83,10.98,4.21c3.73,1.38,7.71,2.74,11.54,3.93,.11-.09,.2-.17,.3-.27-1.14-3.88-2.42-7.77-4.07-11.45-1.65-3.68-3.48-7.17-5.52-10.62-2.04-3.45-4.32-6.68-6.66-9.92-.84-1.17-1.77-2.27-2.65-3.4-5.39-2.88-10.84-5.61-16.37-8.19,3.46,.38,6.91,.82,10.35,1.3-8.3-8.23-17.16-15.46-26.82-22.04-12.84-1.71-25.66-2.88-38.6-3.43,5.87-2.73,11.79-5.3,17.8-7.72-.94-.39-1.78-.81-2.73-1.18-4.2-1.65-8.15-3.29-12.56-4.58-8.82-2.56-18.1-4.25-27.2-5.3-2.28-.26-5-.33-6.86-.43-1.11-.06-.37-.01-.39-.02-7.41,1.56-14.88,3.38-22.23,5.39,3.45-1.79,6.92-3.52,10.43-5.21-3.69,.31-7.15,.56-10.86,1.13-5.23,.81-10.5,1.93-15.69,3.33-2.6,.7-5.33,1.63-7.91,2.54-1.28,.45-2.69,1.04-3.91,1.54-.75,.3-1.34,.57-2.03,.89-.69,.31-1.35,.6-1.99,.98-.14,.08-.22,.27-.12,.39,.38,.46,.85,.78,1.3,1.18,.45,.4,.84,.72,1.34,1.12,.83,.66,1.78,1.42,2.66,2.07,1.76,1.3,3.6,2.6,5.39,3.8,2.37,1.59,4.72,3.05,7.13,4.55,.37-3.74,.6-7.48,.76-11.24,2.17,5.08,4.28,10.19,6.33,15.32,1.95,1.07,3.98,1.99,6.01,2.89-1.62-3.96-3.13-8.04-4.46-12.03,2.07,3.86,5.45,9.61,7.44,12.77,1.21,1.92,.41,.68,.45,.71,3.27,1.46,6.97,3.03,10.34,4.36,7.77,3.07,15.65,6.02,23.42,8.78,3.89,1.38,7.45,2.72,11.21,4.08Z"/><path class="af" d="M152.37,404.61c-.83-.22-1.81-.14-2.15-.85,.5-.87,18.43-9.19,14.86-9.86-3.58-.67-16.84,6.76-22.04,8.03-.99,.24-1.26,0-1.7-.11-12.7-3.14-25.19-6.27-37.81-9.43,4-2.12,7.98-4.26,11.96-6.4-5.84,1.53-11.63,3.21-17.38,5.03-.68-.17-1.34-.33-2.01-.51-1.96-.5-3.88-.99-5.85-1.5s-3.9-1-5.92-1.53c-4.04-1.06-7.97-2.1-12.08-3.22s-8.23-2.28-12.44-3.52c-4.2-1.24-8.67-2.68-12.86-4.15-.04-.14-.04-.27-.06-.42,3.86-2.49,7.87-4.89,11.99-6.86,4.12-1.97,8.27-3.67,12.53-5.2s8.53-2.71,12.87-3.87c1.56-.42,3.12-.72,4.69-1.09,6.37,1.05,12.71,2.24,19.02,3.6-2.99-1.84-6.01-3.64-9.06-5.39,12.49-1.52,24.79-1.87,37.35-1.08,10.74,6.24,21.2,12.86,31.42,19.92-2.33-5.47-4.78-10.88-7.35-16.25,.97,.24,1.95,.43,2.92,.68,4.26,1.13,8.56,2.21,12.72,3.71,8.3,3,16.33,6.84,23.94,11.14,1.9,1.07,3.89,2.49,5.36,3.44,.88,.57,.28,.19,.3,.2,4.15,5.05,8.25,10.29,12.08,15.65-1.14-3.09-2.34-6.16-3.59-9.22,2.43,2.14,4.78,4.21,7.03,6.57,3.16,3.32,6.12,6.81,8.9,10.51,1.39,1.85,2.67,3.91,3.91,5.89,.62,.99,1.18,2.14,1.69,3.15,.31,.62,.54,1.1,.78,1.7,.24,.59,.49,1.14,.64,1.75,.04,.16-.06,.31-.22,.34-.6,.13-1.21,.12-1.83,.16s-1.17,.07-1.82,.09c-1.07,.03-2.24,.04-3.34,.04-2.22,0-4.53-.03-6.73-.1-2.91-.1-5.72-.28-8.61-.47,2.44-2.9,5.03-5.65,7.69-8.35-5.39,2.42-10.7,4.97-15.97,7.64-2.13-.21-4.26-.43-6.38-.68,3.92-2.32,8.01-4.59,11.94-6.73-4.36,1.57-10.94,4.33-14.56,5.9-2.21,.96-.74,.34-.82,.35-3.28-.39-6.98-.9-10.3-1.47-7.64-1.31-15.19-2.8-22.68-4.5-3.75-.85-7.41-1.77-11.05-2.73Z"/><path class="af" d="M203.56,337.94c-.25-.77-.86-1.51-.4-2.16,1.3,.5,15.63,10.27,15.23,6.85-.4-3.42-14.25-9.91-17.52-13.5-.62-.69-.66-1-.8-1.41-4.03-11.75-8-23.3-12-34.98,3.74,2.1,7.5,4.17,11.25,6.25-4.23-3.87-8.54-7.63-12.96-11.28-.21-.63-.42-1.24-.64-1.87-.61-1.82-1.21-3.6-1.82-5.44-.62-1.84-1.22-3.62-1.84-5.5-1.24-3.77-2.44-7.43-3.67-11.28-1.22-3.85-2.44-7.73-3.62-11.72-1.18-3.99-2.34-8.29-3.34-12.38,.09-.1,.19-.17,.3-.26,3.97,1.8,7.94,3.77,11.64,6.04,3.69,2.28,7.19,4.71,10.59,7.32s6.55,5.41,9.71,8.28c1.14,1.03,2.18,2.12,3.29,3.18,2.45,5.62,4.77,11.28,6.95,17.02-.08-3.33-.21-6.66-.39-9.99,7.65,9.18,14.27,18.81,20.12,29.22,.61,11.77,.75,23.49,.39,35.27,3.14-4.67,6.18-9.39,9.11-14.19,.31,.9,.67,1.78,.96,2.68,1.3,3.98,2.66,7.96,3.61,12.04,1.9,8.15,2.99,16.53,3.5,24.8,.13,2.07,.03,4.38,.04,6.04,0,1.01,0,.33,0,.35-1.87,5.9-3.95,11.85-6.16,17.68,1.84-2.51,3.65-5.05,5.43-7.61-.45,3.05-.85,5.98-1.53,9.02-.96,4.28-2.23,8.46-3.8,12.61-.79,2.08-1.79,4.2-2.76,6.23-.48,1.01-1.09,2.1-1.61,3.05-.32,.59-.59,1.03-.91,1.56s-.6,1.04-.98,1.5c-.1,.12-.26,.12-.36,.01-.4-.43-.69-.92-1.02-1.42-.34-.49-.62-.91-.97-1.46-.56-.89-1.26-1.89-1.84-2.79-1.17-1.82-2.36-3.71-3.45-5.54-1.44-2.42-2.76-4.78-4.12-7.22,3.61,.48,7.16,1.16,10.71,1.92-4.72-3.1-9.51-6.07-14.38-8.92-.91-1.81-1.84-3.62-2.73-5.44,3.87,1.94,7.78,4.02,11.51,6.06-3.53-2.69-9.05-6.47-12.22-8.58-1.87-1.24-.64-.4-.68-.46-1.38-2.82-2.88-6.03-4.15-8.97-2.9-6.76-5.6-13.54-8.12-20.39-1.26-3.43-2.42-6.81-3.53-10.21Z"/><path class="ag" d="M331.98,919.11c-1.93-3.5-13.09-11.95-19.26-10.87-2.25-17.5-4.4-34.55-7.4-51.63-3.67-20.9-7.4-41.38-11.53-62.13-8.25-41.49-14.72-82.43-20.64-124.59-5.92-42.16-6.02-85.16-7.98-128.2-.98-21.5-.8-43.37-2.21-66.03-1.41-22.66-1.31-41.92-10.82-63.73-2.24-5.13-6.89-6.74-11.9-4.68s-6.63,7.43-5.7,12.62c0,.02,.03,.09,.03,.11,6.04,20.17,6.42,40.71,6.33,61.75-.08,21.04-.69,43.1-1.42,64.11-1.45,42.04-2.55,84.99,.5,126.72,3.05,41.73,7.36,82.53,12.29,123.81,2.47,20.64,4.92,40.62,6.93,61.13,1.6,16.41,3.01,32.07,3.58,48.7-6.34-1.45-17.44,6.1-19.53,9.92-6.87,12.56-31.1,21.18-13.01,28.35,16.58,6.57,39.1,5.27,57.57,6.93,18.21-.46,40.88,2.55,57.47-3.04,18.11-6.09-6.72-17.3-13.31-29.25Z"/><path class="y" d="M274.13,658.53c.85-.08,1.76-.16,2.5,.19,1.34,.64,1.55,2.47,.86,3.84s-2.01,2.37-3.27,3.31l-28.59,21.26c-1.88,1.4-3.8,2.84-5.12,4.72-1.32,1.88-1.94,4.33-.99,6.23,1.49,2.97,5.78,3.27,9.37,3.07,8.87-.5,17.77-1.84,26.51-4,1.83-.45,4.13-1.54,3.94-3.27-.07-.68-.55-1.22-1.02-1.71-5.87-6.25-12.52-11.84-19.78-16.63-6.38-4.21-21.14-8.29-21.38-11.75s27.44-4.36,36.98-5.27Z"/></g><path class="ae" d="M349.22,949.02c0,2.2-1.79,3.98-3.99,3.98-43.39,7.35-111.1,4.76-184.16,0-2.2,0-3.99-1.78-3.99-3.98,0-10.6,1.45-20.7,4.75-29.9,.57-1.59,2.04-2.68,3.73-2.7l9.1-.1c3.09-.04,4.97-3.43,3.36-6.07l-4.38-7.16c-.92-1.52-.73-3.46,.46-4.78,7.53-8.4,17.88-15.19,31.63-19.78,1.69-.56,3.43-1.09,5.23-1.59,1.71-.47,3.54,.29,4.44,1.82l8.05,13.53,.7,1.17c.78,1.31,2.03,1.93,3.29,1.95,1.99,.06,4-1.37,4.12-3.79l.76-15.22c.1-2,1.66-3.6,3.66-3.78,.87-.08,1.74-.15,2.63-.21,4.61-.33,9.45-.5,14.54-.5,2.53,0,5.01,.04,7.42,.13,2.43,.08,4.79,.2,7.1,.37,1.04,.07,2.06,.15,3.07,.24,7.25,.64,13.9,1.69,19.99,3.11,2.24,.53,3.57,2.83,2.91,5.04l-3.63,12.16c-1.27,4.24,4.28,7.08,6.98,3.57l9.55-12.42c.7-.91,1.72-1.44,2.8-1.54,.46-.04,.94,0,1.4,.12,.26,.06,.51,.16,.76,.28,6.06,2.96,11.27,6.45,15.72,10.4,2.95,2.61,5.57,5.42,7.87,8.41,1.68,2.18,3.2,4.46,4.55,6.82,1.03,1.81,.48,4.12-1.24,5.29l-6.82,4.6-4.21,2.84c-3.46,2.35-1.45,7.76,2.71,7.27l8.96-1.07,4.07-.49c2.09-.25,4,1.16,4.4,3.21,.41,2.08,.74,4.2,.99,6.35,.4,3.26,.62,6.6,.69,9.98,.02,.81,.03,1.62,.03,2.44Z"/><g><path class="ae" d="M298.46,918.63c-32.2,12.43-47.16,45.52-47.45,37.84-.74-19.98-28.52-32.52-37.84-37.28"/><path class="ae" d="M251.02,956.48c1.13-11.3,6.78-36.15,7.34-49.71"/></g></g><g><path class="ae" d="M883.84,912.46c24.92-42.13,39.87-87.68,6.85-64.59-33.02,23.08-31.77,59.84-31.77,59.84l24.92,4.75Z"/><path class="ae" d="M839.88,901.98c-45.81-17.27-85.97-43.43-45.77-46.09,40.2-2.66,62.23,26.79,62.23,26.79l-16.46,19.3Z"/><g><path class="ad" d="M968.01,530.9c.18,.79,.05,1.68,.75,2.05,.74-.93,8.12-15.34,9.32-12.26,1.2,3.09-7,14.41-7.9,18.94-.17,.85-.04,1.13,.04,1.54,2.37,11.44,4.59,22.71,6.79,34.12,2.09-3.28,4.21-6.54,6.34-9.79-1.68,4.9-3.49,9.74-5.44,14.54,.11,.59,.22,1.17,.33,1.75,.33,1.69,.65,3.37,.98,5.07,.33,1.7,.65,3.37,.98,5.08,.67,3.43,1.34,6.8,2.06,10.26s1.45,6.92,2.26,10.44,1.76,7.21,2.76,10.72c.12,.04,.23,.06,.36,.09,2.44-2.8,4.82-5.72,6.84-8.82,2.02-3.09,3.82-6.23,5.47-9.5,1.65-3.27,3.02-6.62,4.35-10.02,.48-1.22,.87-2.47,1.31-3.71-.48-5.52-1.1-11.02-1.88-16.51,1.44,2.81,2.84,5.64,4.2,8.5,2.22-10.4,3.38-20.73,3.63-31.36-5.09-10.57-10.63-20.84-16.64-30.92,5.04,3.07,9.99,6.25,14.86,9.58-.17-.9-.27-1.75-.45-2.66-.82-3.99-1.53-7.82-2.72-11.78-2.36-7.93-5.58-15.78-9.25-23.18-.92-1.85-2.22-3.96-3.05-5.42-.51-.88-.17-.29-.18-.31-4.78-4.78-9.75-9.5-14.84-14.02,3.01,1.69,6.01,3.4,8.98,5.19-2.04-2.66-3.99-5.17-6.25-7.69-3.18-3.55-6.52-6.97-10.13-10.21-1.81-1.62-3.88-3.23-5.84-4.74-.98-.75-2.13-1.53-3.12-2.22-.61-.42-1.1-.73-1.68-1.1-.59-.37-1.16-.74-1.77-1.03-.13-.06-.31-.03-.34,.11-.12,.54-.1,1.06-.13,1.63-.03,.56-.04,1.04-.05,1.65,0,1,0,2.13,.03,3.15,.08,2.06,.21,4.16,.35,6.2,.18,2.71,.3,5.35,.22,8.06,2.76-1.75,5.44-3.63,8.1-5.54-2.49,4.5-5.08,8.92-7.77,13.3,.15,1.99,.32,3.99,.52,5.98,2.29-3.24,4.6-6.6,6.81-9.81-1.72,3.69-4.51,9.26-6.09,12.36-.95,1.87-.33,.62-.35,.69,.31,3.11,.68,6.59,1.15,9.73,1.07,7.22,2.38,14.37,3.82,21.45,.72,3.55,1.45,6.97,2.25,10.42Z"/><path class="ad" d="M896.13,395.25c-.56-.61-1.37-1.01-1.29-1.8,1.18-.05,17.48,2.39,15.61-.4s-16.09-2.72-20.4-4.63c-.81-.36-.97-.62-1.27-.92-8.2-8.53-16.32-16.85-24.57-25.24,3.94,.2,7.87,.37,11.81,.53-5.05-1.48-10.12-2.82-15.25-4.01-.42-.43-.85-.85-1.27-1.28-1.22-1.24-2.42-2.47-3.64-3.72-1.22-1.25-2.42-2.47-3.65-3.73-2.46-2.53-4.86-5.01-7.32-7.59-2.46-2.58-4.9-5.17-7.35-7.85-2.45-2.68-4.96-5.58-7.29-8.42,.04-.12,.08-.22,.13-.34,3.73-.36,7.51-.59,11.24-.45,3.73,.15,7.36,.51,11.03,1.06,3.66,.55,7.22,1.38,10.81,2.26,1.29,.32,2.55,.73,3.83,1.08,4.31,3.58,8.52,7.25,12.63,11.05-1.5-2.79-3.05-5.56-4.64-8.3,9.92,4.22,19.19,9.26,28.18,15.2,5.91,10.23,11.33,20.66,16.3,31.39,.33-5.86,.51-11.71,.55-17.58,.65,.66,1.31,1.23,1.96,1.91,2.86,2.97,5.66,5.76,8.28,9.03,5.24,6.53,9.94,13.72,14.03,21.01,1.02,1.82,2.04,4.11,2.79,5.65,.44,.91,.14,.3,.15,.32,1.26,6.69,2.32,13.51,3.25,20.3,.28-3.45,.55-6.89,.77-10.35,1.04,3.21,2.04,6.23,2.88,9.53,1.19,4.65,2.09,9.42,2.76,14.25,.34,2.42,.52,5.04,.68,7.53,.08,1.24,.1,2.65,.14,3.86,.02,.74,.01,1.34,0,2.03,0,.69,0,1.35-.08,2.02-.02,.15-.14,.27-.28,.22-.52-.19-.96-.5-1.45-.78-.49-.28-.91-.53-1.43-.86-.85-.54-1.82-1.15-2.68-1.74-1.73-1.18-3.47-2.4-5.15-3.64-2.22-1.64-4.38-3.29-6.56-4.96,3.06-1.33,6.16-2.52,9.29-3.66-5.19-.51-10.39-.96-15.6-1.34-1.59-1.32-3.17-2.66-4.73-4.02,4.02,.06,8.15,.17,12.1,.26-4.06-.8-10.33-1.83-13.82-2.38-2.12-.33-.71-.1-.78-.13-2.42-2.1-5.14-4.54-7.48-6.79-5.38-5.17-10.64-10.39-15.77-15.7-2.57-2.66-5.01-5.23-7.45-7.9Z"/><path class="ad" d="M866.94,459.43c-.94-.02-1.89,.27-2.49-.31,.17-.81,15.41-13.03,11.67-12.74-3.74,.3-14.68,10.29-19.56,12.67-.93,.45-1.27,.28-1.75,.28-13.29,.04-26.36,.2-39.58,.46,3.15-2.94,6.27-5.9,9.39-8.87-5.04,2.86-9.99,5.85-14.86,8.98-.67,.01-1.35,.03-2.02,.04-1.94,.03-3.87,.07-5.81,.11-1.94,.04-3.84,.08-5.8,.11-3.92,.06-7.75,.12-11.71,.14-3.96,.02-7.91,.03-11.95-.03-4.04-.05-8.3-.22-12.38-.49-.07-.12-.12-.23-.18-.36,2.53-3.21,5.18-6.36,8.12-9.19,2.93-2.83,5.96-5.42,9.17-7.9s6.57-4.67,9.99-6.84c1.23-.78,2.52-1.47,3.77-2.21,6.17-.74,12.34-1.33,18.54-1.74-3.42-.89-6.85-1.72-10.29-2.51,11-4.7,22.17-8.23,33.84-10.85,13.05,3.05,25.91,6.58,38.65,10.71-4.63-4.64-9.37-9.13-14.21-13.56,1.05-.02,2.01-.11,3.07-.11,4.67-.02,9.11-.12,13.85,.27,9.48,.78,19.11,2.52,28.34,4.81,2.31,.57,5,1.5,6.85,2.08,1.11,.34,.36,.12,.39,.12,6.56,4.05,13.09,8.37,19.44,12.82-2.66-2.85-5.35-5.65-8.08-8.44,3.45,1.61,6.74,3.1,10.12,4.95,4.76,2.6,9.49,5.45,13.99,8.62,2.25,1.59,4.46,3.45,6.6,5.23,1.06,.89,2.2,1.96,3.2,2.88,.61,.56,1.08,1.03,1.62,1.57,.55,.54,1.08,1.05,1.55,1.64,.1,.13,.12,.32-.03,.4-.53,.28-1.09,.39-1.67,.57-.58,.18-1.08,.33-1.71,.49-1.04,.27-2.24,.59-3.31,.82-2.16,.48-4.41,.95-6.55,1.34-2.84,.51-5.57,.9-8.4,1.29,.88-3.49,2.12-6.81,3.4-10.16-4.13,3.78-8.28,7.52-12.43,11.29-2.36,.22-4.73,.41-7.1,.57,3.13-3.04,6.24-6.25,9.26-9.3-3.72,2.62-9.27,6.73-12.45,9.01-1.89,1.36-.65,.49-.7,.5-3.71,.27-7.94,.49-11.7,.6-8.64,.26-17.3,.39-25.81,.39-4.26,0-8.19-.05-12.32-.14Z"/><path class="ad" d="M1043.17,476.88c.86,.1,1.76,.52,2.33-.01-.14-.98-13.84-15.18-10.25-14.51,3.59,.67,13.26,12.34,17.67,15.39,.84,.58,1.18,.45,1.64,.5,13.12,1.65,26.03,3.22,39.08,4.83-2.97-3.41-5.92-6.83-8.87-10.25,4.93,3.52,9.75,7.16,14.49,10.93,.7,.08,1.38,.17,2.09,.25,2.04,.24,4.02,.47,6.08,.71,2.06,.24,4.05,.47,6.15,.71,4.21,.47,8.29,.92,12.59,1.35,4.29,.43,8.62,.85,13.05,1.21,4.43,.36,9.19,.63,13.69,.78,.09-.12,.14-.24,.21-.37-2.72-3.71-5.6-7.38-8.76-10.7-3.16-3.32-6.43-6.4-9.88-9.35s-7.03-5.59-10.69-8.23c-1.32-.95-2.67-1.79-4.01-2.7-6.4-1.32-12.82-2.49-19.27-3.5,3.51-.63,7.02-1.22,10.55-1.75-11.21-5.91-22.67-10.66-34.76-14.44-12.41,1.94-24.69,4.33-36.91,7.23,4.22-4.25,8.53-8.41,12.94-12.46-1-.13-2-.31-3-.42-4.42-.48-8.87-1.03-13.31-1.13-8.89-.2-17.83,.48-26.54,1.73-2.18,.31-4.53,.91-6.26,1.26-1.04,.21-.34,.08-.36,.08-5.72,3.19-11.43,6.59-16.99,10.14,2.19-2.45,4.42-4.86,6.69-7.24-3.04,1.1-6.02,2.16-8.97,3.51-4.15,1.89-8.17,4.04-12.08,6.45-1.96,1.21-3.85,2.62-5.69,4.02-.91,.69-1.82,1.53-2.65,2.25-.51,.44-.88,.81-1.33,1.24s-.88,.82-1.25,1.31c-.09,.12-.06,.3,.07,.39,.51,.34,1.07,.56,1.64,.83s1.06,.49,1.67,.76c1,.44,2.17,.92,3.2,1.36,2.07,.87,4.22,1.7,6.3,2.46,2.75,1,5.41,1.9,8.16,2.81-1.28-3.62-2.74-7.14-4.3-10.65,4.16,4.23,8.22,8.53,12.09,13.02,2.04,.58,4.09,1.14,6.15,1.67-2.78-3.56-5.68-7.19-8.54-10.58,3.47,3.04,8.49,7.98,11.29,10.77,1.68,1.67,.56,.58,.62,.61,3.2,.82,6.81,1.68,10.11,2.35,7.59,1.54,15.15,2.87,22.76,3.99,3.81,.56,7.6,1.02,11.36,1.44Z"/><path class="ad" d="M1019.62,396.4c.52-.63,1.36-1.09,1.17-1.86-1.41,0-18.43,3.93-16.81,.89,1.62-3.05,17.02-4.08,21.41-6.25,.84-.42,.98-.69,1.27-1.03,8.14-9.49,16.15-18.81,24.24-28.24-4.31,.61-8.61,1.19-12.92,1.76,5.42-2.08,10.88-4.02,16.4-5.83,.43-.51,.86-1,1.29-1.51,1.25-1.48,2.48-2.91,3.74-4.4,1.26-1.49,2.5-2.93,3.78-4.46,2.57-3.06,5.07-6.03,7.66-9.17,2.59-3.14,5.18-6.32,7.78-9.6,2.6-3.28,5.3-6.86,7.77-10.31-.05-.13-.12-.23-.19-.35-4.42,.24-8.91,.64-13.24,1.43-4.33,.79-8.54,1.8-12.72,3-4.19,1.2-8.19,2.67-12.25,4.2-1.46,.55-2.85,1.18-4.28,1.77-4.4,4.34-8.69,8.78-12.87,13.33,1.31-3.07,2.67-6.12,4.07-9.15-10.6,5.77-20.42,12.34-29.8,19.94-4.9,10.72-9.34,21.57-13.29,32.67-1.26-5.47-2.39-10.96-3.38-16.48-.62,.72-1.29,1.41-1.89,2.14-2.68,3.22-5.43,6.44-7.82,9.89-4.76,6.89-8.83,14.27-12.3,21.79-.87,1.88-1.6,4.05-2.2,5.6-.36,.93-.11,.3-.12,.32-.34,6.16-.5,12.43-.44,18.65-.86-3-1.68-6.01-2.45-9.04-.66,2.99-1.31,5.87-1.71,8.93-.57,4.3-.86,8.61-.88,12.98,0,2.19,.17,4.48,.37,6.68,.1,1.1,.3,2.32,.46,3.38,.1,.65,.2,1.16,.32,1.76,.12,.6,.21,1.17,.41,1.73,.05,.14,.21,.21,.34,.15,.53-.24,.98-.57,1.47-.9,.49-.32,.9-.6,1.41-.96,.84-.6,1.8-1.27,2.65-1.9,1.72-1.26,3.5-2.57,5.17-3.85,2.21-1.7,4.3-3.4,6.44-5.15-3.54-.85-7.1-1.5-10.7-2.08,5.52-1.15,11.06-2.17,16.64-3.05,1.51-1.34,3.01-2.69,4.5-4.06-4.31,.4-8.72,.93-12.94,1.48,4.22-1.23,10.82-2.76,14.48-3.56,2.24-.49,.76-.15,.83-.18,2.31-2.12,4.87-4.56,7.11-6.84,5.16-5.24,10.15-10.58,14.99-16.04,2.42-2.74,4.75-5.47,7.03-8.22Z"/><path class="af" d="M968.01,530.9c.18,.79,.05,1.68,.75,2.05,.74-.93,8.12-15.34,9.32-12.26,1.2,3.09-7,14.41-7.9,18.94-.17,.85-.04,1.13,.04,1.54,2.37,11.44,4.59,22.71,6.79,34.12,2.09-3.28,4.21-6.54,6.34-9.79-1.68,4.9-3.49,9.74-5.44,14.54,.11,.59,.22,1.17,.33,1.75,.33,1.69,.65,3.37,.98,5.07,.33,1.7,.65,3.37,.98,5.08,.67,3.43,1.34,6.8,2.06,10.26s1.45,6.92,2.26,10.44,1.76,7.21,2.76,10.72c.12,.04,.23,.06,.36,.09,2.44-2.8,4.82-5.72,6.84-8.82,2.02-3.09,3.82-6.23,5.47-9.5,1.65-3.27,3.02-6.62,4.35-10.02,.48-1.22,.87-2.47,1.31-3.71-.48-5.52-1.1-11.02-1.88-16.51,1.44,2.81,2.84,5.64,4.2,8.5,2.22-10.4,3.38-20.73,3.63-31.36-5.09-10.57-10.63-20.84-16.64-30.92,5.04,3.07,9.99,6.25,14.86,9.58-.17-.9-.27-1.75-.45-2.66-.82-3.99-1.53-7.82-2.72-11.78-2.36-7.93-5.58-15.78-9.25-23.18-.92-1.85-2.22-3.96-3.05-5.42-.51-.88-.17-.29-.18-.31-4.78-4.78-9.75-9.5-14.84-14.02,3.01,1.69,6.01,3.4,8.98,5.19-2.04-2.66-3.99-5.17-6.25-7.69-3.18-3.55-6.52-6.97-10.13-10.21-1.81-1.62-3.88-3.23-5.84-4.74-.98-.75-2.13-1.53-3.12-2.22-.61-.42-1.1-.73-1.68-1.1-.59-.37-1.16-.74-1.77-1.03-.13-.06-.31-.03-.34,.11-.12,.54-.1,1.06-.13,1.63-.03,.56-.04,1.04-.05,1.65,0,1,0,2.13,.03,3.15,.08,2.06,.21,4.16,.35,6.2,.18,2.71,.3,5.35,.22,8.06,2.76-1.75,5.44-3.63,8.1-5.54-2.49,4.5-5.08,8.92-7.77,13.3,.15,1.99,.32,3.99,.52,5.98,2.29-3.24,4.6-6.6,6.81-9.81-1.72,3.69-4.51,9.26-6.09,12.36-.95,1.87-.33,.62-.35,.69,.31,3.11,.68,6.59,1.15,9.73,1.07,7.22,2.38,14.37,3.82,21.45,.72,3.55,1.45,6.97,2.25,10.42Z"/><path class="af" d="M896.13,395.25c-.56-.61-1.37-1.01-1.29-1.8,1.18-.05,17.48,2.39,15.61-.4s-16.09-2.72-20.4-4.63c-.81-.36-.97-.62-1.27-.92-8.2-8.53-16.32-16.85-24.57-25.24,3.94,.2,7.87,.37,11.81,.53-5.05-1.48-10.12-2.82-15.25-4.01-.42-.43-.85-.85-1.27-1.28-1.22-1.24-2.42-2.47-3.64-3.72-1.22-1.25-2.42-2.47-3.65-3.73-2.46-2.53-4.86-5.01-7.32-7.59-2.46-2.58-4.9-5.17-7.35-7.85-2.45-2.68-4.96-5.58-7.29-8.42,.04-.12,.08-.22,.13-.34,3.73-.36,7.51-.59,11.24-.45,3.73,.15,7.36,.51,11.03,1.06,3.66,.55,7.22,1.38,10.81,2.26,1.29,.32,2.55,.73,3.83,1.08,4.31,3.58,8.52,7.25,12.63,11.05-1.5-2.79-3.05-5.56-4.64-8.3,9.92,4.22,19.19,9.26,28.18,15.2,5.91,10.23,11.33,20.66,16.3,31.39,.33-5.86,.51-11.71,.55-17.58,.65,.66,1.31,1.23,1.96,1.91,2.86,2.97,5.66,5.76,8.28,9.03,5.24,6.53,9.94,13.72,14.03,21.01,1.02,1.82,2.04,4.11,2.79,5.65,.44,.91,.14,.3,.15,.32,1.26,6.69,2.32,13.51,3.25,20.3,.28-3.45,.55-6.89,.77-10.35,1.04,3.21,2.04,6.23,2.88,9.53,1.19,4.65,2.09,9.42,2.76,14.25,.34,2.42,.52,5.04,.68,7.53,.08,1.24,.1,2.65,.14,3.86,.02,.74,.01,1.34,0,2.03,0,.69,0,1.35-.08,2.02-.02,.15-.14,.27-.28,.22-.52-.19-.96-.5-1.45-.78-.49-.28-.91-.53-1.43-.86-.85-.54-1.82-1.15-2.68-1.74-1.73-1.18-3.47-2.4-5.15-3.64-2.22-1.64-4.38-3.29-6.56-4.96,3.06-1.33,6.16-2.52,9.29-3.66-5.19-.51-10.39-.96-15.6-1.34-1.59-1.32-3.17-2.66-4.73-4.02,4.02,.06,8.15,.17,12.1,.26-4.06-.8-10.33-1.83-13.82-2.38-2.12-.33-.71-.1-.78-.13-2.42-2.1-5.14-4.54-7.48-6.79-5.38-5.17-10.64-10.39-15.77-15.7-2.57-2.66-5.01-5.23-7.45-7.9Z"/><path class="af" d="M866.94,459.43c-.94-.02-1.89,.27-2.49-.31,.17-.81,15.41-13.03,11.67-12.74-3.74,.3-14.68,10.29-19.56,12.67-.93,.45-1.27,.28-1.75,.28-13.29,.04-26.36,.2-39.58,.46,3.15-2.94,6.27-5.9,9.39-8.87-5.04,2.86-9.99,5.85-14.86,8.98-.67,.01-1.35,.03-2.02,.04-1.94,.03-3.87,.07-5.81,.11-1.94,.04-3.84,.08-5.8,.11-3.92,.06-7.75,.12-11.71,.14-3.96,.02-7.91,.03-11.95-.03-4.04-.05-8.3-.22-12.38-.49-.07-.12-.12-.23-.18-.36,2.53-3.21,5.18-6.36,8.12-9.19,2.93-2.83,5.96-5.42,9.17-7.9s6.57-4.67,9.99-6.84c1.23-.78,2.52-1.47,3.77-2.21,6.17-.74,12.34-1.33,18.54-1.74-3.42-.89-6.85-1.72-10.29-2.51,11-4.7,22.17-8.23,33.84-10.85,13.05,3.05,25.91,6.58,38.65,10.71-4.63-4.64-9.37-9.13-14.21-13.56,1.05-.02,2.01-.11,3.07-.11,4.67-.02,9.11-.12,13.85,.27,9.48,.78,19.11,2.52,28.34,4.81,2.31,.57,5,1.5,6.85,2.08,1.11,.34,.36,.12,.39,.12,6.56,4.05,13.09,8.37,19.44,12.82-2.66-2.85-5.35-5.65-8.08-8.44,3.45,1.61,6.74,3.1,10.12,4.95,4.76,2.6,9.49,5.45,13.99,8.62,2.25,1.59,4.46,3.45,6.6,5.23,1.06,.89,2.2,1.96,3.2,2.88,.61,.56,1.08,1.03,1.62,1.57,.55,.54,1.08,1.05,1.55,1.64,.1,.13,.12,.32-.03,.4-.53,.28-1.09,.39-1.67,.57-.58,.18-1.08,.33-1.71,.49-1.04,.27-2.24,.59-3.31,.82-2.16,.48-4.41,.95-6.55,1.34-2.84,.51-5.57,.9-8.4,1.29,.88-3.49,2.12-6.81,3.4-10.16-4.13,3.78-8.28,7.52-12.43,11.29-2.36,.22-4.73,.41-7.1,.57,3.13-3.04,6.24-6.25,9.26-9.3-3.72,2.62-9.27,6.73-12.45,9.01-1.89,1.36-.65,.49-.7,.5-3.71,.27-7.94,.49-11.7,.6-8.64,.26-17.3,.39-25.81,.39-4.26,0-8.19-.05-12.32-.14Z"/><path class="af" d="M1043.17,476.88c.86,.1,1.76,.52,2.33-.01-.14-.98-13.84-15.18-10.25-14.51,3.59,.67,13.26,12.34,17.67,15.39,.84,.58,1.18,.45,1.64,.5,13.12,1.65,26.03,3.22,39.08,4.83-2.97-3.41-5.92-6.83-8.87-10.25,4.93,3.52,9.75,7.16,14.49,10.93,.7,.08,1.38,.17,2.09,.25,2.04,.24,4.02,.47,6.08,.71,2.06,.24,4.05,.47,6.15,.71,4.21,.47,8.29,.92,12.59,1.35,4.29,.43,8.62,.85,13.05,1.21,4.43,.36,9.19,.63,13.69,.78,.09-.12,.14-.24,.21-.37-2.72-3.71-5.6-7.38-8.76-10.7-3.16-3.32-6.43-6.4-9.88-9.35s-7.03-5.59-10.69-8.23c-1.32-.95-2.67-1.79-4.01-2.7-6.4-1.32-12.82-2.49-19.27-3.5,3.51-.63,7.02-1.22,10.55-1.75-11.21-5.91-22.67-10.66-34.76-14.44-12.41,1.94-24.69,4.33-36.91,7.23,4.22-4.25,8.53-8.41,12.94-12.46-1-.13-2-.31-3-.42-4.42-.48-8.87-1.03-13.31-1.13-8.89-.2-17.83,.48-26.54,1.73-2.18,.31-4.53,.91-6.26,1.26-1.04,.21-.34,.08-.36,.08-5.72,3.19-11.43,6.59-16.99,10.14,2.19-2.45,4.42-4.86,6.69-7.24-3.04,1.1-6.02,2.16-8.97,3.51-4.15,1.89-8.17,4.04-12.08,6.45-1.96,1.21-3.85,2.62-5.69,4.02-.91,.69-1.82,1.53-2.65,2.25-.51,.44-.88,.81-1.33,1.24s-.88,.82-1.25,1.31c-.09,.12-.06,.3,.07,.39,.51,.34,1.07,.56,1.64,.83s1.06,.49,1.67,.76c1,.44,2.17,.92,3.2,1.36,2.07,.87,4.22,1.7,6.3,2.46,2.75,1,5.41,1.9,8.16,2.81-1.28-3.62-2.74-7.14-4.3-10.65,4.16,4.23,8.22,8.53,12.09,13.02,2.04,.58,4.09,1.14,6.15,1.67-2.78-3.56-5.68-7.19-8.54-10.58,3.47,3.04,8.49,7.98,11.29,10.77,1.68,1.67,.56,.58,.62,.61,3.2,.82,6.81,1.68,10.11,2.35,7.59,1.54,15.15,2.87,22.76,3.99,3.81,.56,7.6,1.02,11.36,1.44Z"/><path class="af" d="M1019.62,396.4c.52-.63,1.36-1.09,1.17-1.86-1.41,0-18.43,3.93-16.81,.89,1.62-3.05,17.02-4.08,21.41-6.25,.84-.42,.98-.69,1.27-1.03,8.14-9.49,16.15-18.81,24.24-28.24-4.31,.61-8.61,1.19-12.92,1.76,5.42-2.08,10.88-4.02,16.4-5.83,.43-.51,.86-1,1.29-1.51,1.25-1.48,2.48-2.91,3.74-4.4,1.26-1.49,2.5-2.93,3.78-4.46,2.57-3.06,5.07-6.03,7.66-9.17,2.59-3.14,5.18-6.32,7.78-9.6,2.6-3.28,5.3-6.86,7.77-10.31-.05-.13-.12-.23-.19-.35-4.42,.24-8.91,.64-13.24,1.43-4.33,.79-8.54,1.8-12.72,3-4.19,1.2-8.19,2.67-12.25,4.2-1.46,.55-2.85,1.18-4.28,1.77-4.4,4.34-8.69,8.78-12.87,13.33,1.31-3.07,2.67-6.12,4.07-9.15-10.6,5.77-20.42,12.34-29.8,19.94-4.9,10.72-9.34,21.57-13.29,32.67-1.26-5.47-2.39-10.96-3.38-16.48-.62,.72-1.29,1.41-1.89,2.14-2.68,3.22-5.43,6.44-7.82,9.89-4.76,6.89-8.83,14.27-12.3,21.79-.87,1.88-1.6,4.05-2.2,5.6-.36,.93-.11,.3-.12,.32-.34,6.16-.5,12.43-.44,18.65-.86-3-1.68-6.01-2.45-9.04-.66,2.99-1.31,5.87-1.71,8.93-.57,4.3-.86,8.61-.88,12.98,0,2.19,.17,4.48,.37,6.68,.1,1.1,.3,2.32,.46,3.38,.1,.65,.2,1.16,.32,1.76,.12,.6,.21,1.17,.41,1.73,.05,.14,.21,.21,.34,.15,.53-.24,.98-.57,1.47-.9,.49-.32,.9-.6,1.41-.96,.84-.6,1.8-1.27,2.65-1.9,1.72-1.26,3.5-2.57,5.17-3.85,2.21-1.7,4.3-3.4,6.44-5.15-3.54-.85-7.1-1.5-10.7-2.08,5.52-1.15,11.06-2.17,16.64-3.05,1.51-1.34,3.01-2.69,4.5-4.06-4.31,.4-8.72,.93-12.94,1.48,4.22-1.23,10.82-2.76,14.48-3.56,2.24-.49,.76-.15,.83-.18,2.31-2.12,4.87-4.56,7.11-6.84,5.16-5.24,10.15-10.58,14.99-16.04,2.42-2.74,4.75-5.47,7.03-8.22Z"/><path class="ag" d="M807.21,914.09c2.28-3.4,13.7-10.04,19.67-8.31,3.19-17.14,6.99-34.25,10.35-50.99,4.12-20.49,8.75-41.17,12.14-61.55,6.79-40.76,11.6-82.3,18.02-122.83,6.42-40.53,14.19-80.3,26.15-119.23,5.98-19.45,12.66-37.24,21.29-55.53,8.62-18.29,18.08-34.31,32.69-48.72,3.44-3.39,9.17-3.39,12.88,.4,3.71,3.78,3.76,8.98,.78,13.47-.01,.02-.05,.04-.07,.06-11.5,14.73-19.8,29.68-26.37,47.41-6.57,17.73-11.84,34.63-16.09,53.66-8.5,38.09-13.73,75.9-17.26,115.57-3.52,39.67-5.45,81.51-10.24,121.75-2.4,20.12-5.39,41.59-8.43,61.89-2.43,16.23-5.07,32.68-6.32,49.34,6.49-.66,16.7,8.86,18.33,12.73,5.38,12.73,28.79,25.43,10.55,30.15-16.71,4.32-38.99-.19-56.96-1.06-18.07-2.97-40.44-3.23-56.26-10.97-17.27-8.45,7.35-15.63,15.13-27.25Z"/><path class="y" d="M868.61,671.35c-.85-.08-1.75-.15-2.52,.2-1.4,.65-1.75,2.51-1.18,3.89s1.82,2.4,3.02,3.35l26.97,21.48c1.78,1.41,3.59,2.87,4.76,4.77s1.6,4.38,.48,6.31c-1.74,3.01-6.06,3.33-9.66,3.13-8.87-.49-17.69-1.82-26.28-3.99-1.8-.45-4.02-1.55-3.69-3.3,.13-.69,.65-1.24,1.16-1.74,6.4-6.35,13.53-12.03,21.21-16.9,6.74-4.28,21.89-8.45,22.41-11.96s-27.18-4.35-36.68-5.25Z"/></g><path class="ae" d="M1017.37,949.02c0,2.2-1.78,3.98-3.99,3.98-64.63,10.64-125.82,10.01-184.16,0-2.08,0-3.78-1.59-3.96-3.62-.01-.12-.02-.24-.02-.36,0-6.47,.53-12.76,1.7-18.77,.4-2.05,2.32-3.46,4.4-3.21l13.04,1.56c4.15,.49,6.17-4.92,2.7-7.27l-11.02-7.44c-1.73-1.17-2.28-3.48-1.24-5.29,1.35-2.36,2.87-4.64,4.55-6.82,2.29-2.98,4.9-5.79,7.84-8.39,4.45-3.96,9.67-7.45,15.74-10.42,.25-.12,.5-.22,.76-.28,1.54-.41,3.21,.12,4.21,1.42l9.55,12.42c.08,.11,.17,.21,.25,.3,2.77,3.04,7.96,.24,6.73-3.87l-3.63-12.16c-.66-2.21,.67-4.51,2.91-5.04,6.09-1.42,12.74-2.47,19.98-3.11,1.01-.09,2.03-.17,3.07-.24,4.6-.33,9.44-.5,14.52-.5s9.94,.17,14.55,.5c.89,.06,1.76,.13,2.63,.21,1.99,.18,3.56,1.78,3.66,3.78l.76,15.22c.2,3.95,5.39,5.24,7.41,1.84l8.74-14.7c.91-1.53,2.73-2.29,4.45-1.82,16.39,4.53,28.4,11.94,36.86,21.37,1.19,1.32,1.38,3.26,.45,4.78l-4.37,7.16c-1.61,2.64,.26,6.03,3.36,6.07l9.1,.1c1.69,.02,3.16,1.11,3.73,2.7,1.15,3.2,2.07,6.5,2.78,9.9,1.35,6.38,1.96,13.08,1.96,20Z"/><g><path class="ae" d="M964.32,920.83c-32.2,12.43-47.16,45.52-47.45,37.84-.74-19.98-28.52-32.52-37.84-37.28"/><path class="ae" d="M916.87,958.68c1.13-11.3,6.78-36.15,7.34-49.71"/></g></g><path class="ae" d="M272.79,688.74c-.3,4.59,43.87,50.26,101.36,99.57,57.49,49.3,126.28,77.6,200.2,91.95,48.8,2.15,87.94-3.35,124.16-17.94,115.03-46.35,178.44-160.81,171.53-162.55s-2.44,1.15-22.17,21.93c-34.76,36.59-76.09,63.85-100.32,76.77-41.46,22.11-107.8,63.57-207.31,30.41-72.76-24.25-214.09-93.07-236.71-114.42-10.91-7.51-30.44-30.3-30.74-25.71Z"/><g class="ah"><g><path class="a`" d="M371.06,750.69c1.98,2.47,3.99,5,5.1,7.97s1.17,6.5-.62,9.12c-.71,1.04-1.7,1.92-2.12,3.11-.73,2.05,.48,4.3,2,5.85s3.41,2.79,4.59,4.62c1.67,2.6,1.58,6.04,.52,8.94s-2.98,5.41-4.86,7.86"/><path class="a`" d="M421.97,775.56c3.15,3.56,1.95,9.04,.84,13.66s-1.51,10.46,2.4,13.17c1.52,1.05,3.42,1.38,5.13,2.06s3.44,2,3.61,3.84c.23,2.44-2.26,4.19-3.28,6.42-1.33,2.93,.03,6.4,1.95,8.98s4.42,4.77,5.8,7.68,1.17,6.98-1.57,8.66"/><path class="a`" d="M487.15,808.13c6.06,.18,11.34,6.07,10.86,12.11-.37,4.64-3.55,9.35-1.64,13.59,2.24,4.99,10.56,6.51,10.36,11.98-.08,2.28-1.83,4.53-1.02,6.66,1.02,2.71,4.84,2.53,7.51,3.66,2.89,1.22,4.62,4.34,5.04,7.45s-.22,6.25-.87,9.32"/><path class="a`" d="M574.69,834.33c8.14,1.38,15.13,8.01,16.95,16.07,.84,3.73,.81,8.01,3.48,10.75,3.4,3.49,9.3,2.59,13.55,4.96,3.35,1.87,5.26,5.52,6.66,9.09s2.55,7.36,5.06,10.26,6.89,4.65,10.25,2.81"/><path class="a`" d="M656.54,830.88c5.96-1.66,12.83,.82,16.36,5.89,2.96,4.25,4.28,10.49,9.24,12,3.16,.96,6.47-.53,9.55-1.74s6.81-2.09,9.48-.15c1.7,1.23,2.54,3.34,4.11,4.74,5.06,4.53,13.5-.7,19.75,1.95"/><path class="a`" d="M729.24,801.4c3.94-4.01,10.8-4.71,15.47-1.57,3.69,2.48,6.07,6.99,10.35,8.19,4.64,1.31,9.33-1.85,14.14-2.21,2.39-.18,4.77,.34,7.11,.86,5.47,1.21,10.95,2.43,16.42,3.64"/><path class="a`" d="M790.68,765.45c2.69-3.11,7.35-3.6,11.43-3.05s8.1,1.89,12.21,1.59c2.6-.19,5.11-1.03,7.66-1.59,5.92-1.29,12.17-1.02,17.95,.78"/></g></g><path class="x" d="M618.27,809.28c-6.22,4.01-13.03,7.08-20.15,9.09"/></svg>